<svg height="512" viewBox="0 0 512 512" width="512" xmlns="http://www.w3.org/2000/svg"><g id="Fill_out_line" data-name="Fill out line"><rect fill="#8acce7" height="280" rx="32" width="400" x="88" y="24"/><path d="m88 256h400a0 0 0 0 1 0 0v16a32 32 0 0 1 -32 32h-336a32 32 0 0 1 -32-32v-16a0 0 0 0 1 0 0z" fill="#379ec3"/><path d="m456 64v192h-336v-192a7.99778 7.99778 0 0 1 8-8h320a7.99782 7.99782 0 0 1 8 8z" fill="#eedc9a"/><path d="m456 64v40h-336v-40a7.99778 7.99778 0 0 1 8-8h320a7.99782 7.99782 0 0 1 8 8z" fill="#eebe33"/><path d="m256 304v32a32 32 0 0 1 -32 32h128a32 32 0 0 1 -32-32v-32z" fill="#8acce7"/><path d="m336 136h88v88h-88z" fill="#c4d4e0"/><rect fill="#396795" height="304" rx="16" width="184" x="24" y="184"/><path d="m184 464h-136v-256h32l16 16h40l16-16h32z" fill="#eedc9a"/><path d="m72 248h88v88h-88z" fill="#c4d4e0"/><path d="m192 176h-152a24.02687 24.02687 0 0 0 -24 24v272a24.02687 24.02687 0 0 0 24 24h152a24.02687 24.02687 0 0 0 24-24v-272a24.02687 24.02687 0 0 0 -24-24zm8 296a8.00917 8.00917 0 0 1 -8 8h-152a8.00917 8.00917 0 0 1 -8-8v-272a8.00917 8.00917 0 0 1 8-8h152a8.00917 8.00917 0 0 1 8 8z"/><path d="m184 200h-32a7.99877 7.99877 0 0 0 -5.65674 2.34326l-13.65674 13.65674h-33.373l-13.65678-13.65674a7.99877 7.99877 0 0 0 -5.65674-2.34326h-32a7.99977 7.99977 0 0 0 -8 8v256a7.99977 7.99977 0 0 0 8 8h136a7.99977 7.99977 0 0 0 8-8v-256a7.99977 7.99977 0 0 0 -8-8zm-8 256h-120v-240h20.68652l13.65674 13.65674a7.99877 7.99877 0 0 0 5.65674 2.34326h40a7.99877 7.99877 0 0 0 5.65674-2.34326l13.65674-13.65674h20.68652z"/><path d="m64 248v88a7.99977 7.99977 0 0 0 8 8h88a7.99977 7.99977 0 0 0 8-8v-88a7.99977 7.99977 0 0 0 -8-8h-88a7.99977 7.99977 0 0 0 -8 8zm16 8h72v72h-72z"/><path d="m122.34326 282.34326-2.34326 2.34326-10.34326-10.34326a8 8 0 0 0 -11.31348 0l-16 16 11.31348 11.31348 10.34326-10.34326 4.68652 4.68652-10.34326 10.34326 11.31348 11.31348 18.34326-18.34326 10.34326 10.34326 11.31348-11.31348-16-16a8 8 0 0 0 -11.31348 0z"/><path d="m88 352h32v16h-32z"/><path d="m136 352h32v16h-32z"/><path d="m64 376h40v16h-40z"/><path d="m120 376h48v16h-48z"/><path d="m64 400h56v16h-56z"/><path d="m136 400h32v16h-32z"/><path d="m64 424h16v16h-16z"/><path d="m96 424h32v16h-32z"/><path d="m456 16h-336a40.04026 40.04026 0 0 0 -40 40v104h16v-104a24.03185 24.03185 0 0 1 24-24h336a24.03185 24.03185 0 0 1 24 24v192h-16v-184a16.02123 16.02123 0 0 0 -16-16h-320a16.02123 16.02123 0 0 0 -16 16v96h16v-96h320v184h-216v16h248v8a24.03189 24.03189 0 0 1 -24 24h-224v16h16v24a24.03189 24.03189 0 0 1 -24 24 8 8 0 0 0 0 16h128a8 8 0 0 0 0-16 24.03189 24.03189 0 0 1 -24-24v-24h128a40.04022 40.04022 0 0 0 40-40v-216a40.04026 40.04026 0 0 0 -40-40zm-135.98 344h-64.04a39.80743 39.80743 0 0 0 8.02-24v-24h48v24a39.80743 39.80743 0 0 0 8.02 24z"/><circle cx="288" cy="280" r="8"/><circle cx="144" cy="80" r="8"/><circle cx="168" cy="80" r="8"/><circle cx="192" cy="80" r="8"/><path d="m144 96h288v16h-288z"/><path d="m336 128a7.99977 7.99977 0 0 0 -8 8v88a7.99977 7.99977 0 0 0 8 8h88a7.99977 7.99977 0 0 0 8-8v-88a7.99977 7.99977 0 0 0 -8-8zm80 88h-72v-72h72z"/><path d="m176 136h32v16h-32z"/><path d="m224 136h32v16h-32z"/><path d="m272 136h32v16h-32z"/><path d="m224 168h16v16h-16z"/><path d="m256 168h48v16h-48z"/><path d="m256 200h16v16h-16z"/><path d="m368 179.31348 4.68652 4.68652-10.34326 10.34326 11.31348 11.31348 18.34326-18.34326 10.34326 10.34326 11.31348-11.31348-16-16a8 8 0 0 0 -11.31348 0l-2.34326 2.34326-10.34326-10.34326a8 8 0 0 0 -11.31348 0l-16 16 11.31348 11.31348z"/></g></svg>