<?xml version="1.0" encoding="utf-8"?>
<!-- Generator: Adobe Illustrator 24.1.0, SVG Export Plug-In . SVG Version: 6.00 Build 0)  -->
<svg version="1.1" id="Capa_1" xmlns="http://www.w3.org/2000/svg" xmlns:xlink="http://www.w3.org/1999/xlink" x="0px" y="0px"
	 viewBox="0 0 512 512" style="enable-background:new 0 0 512 512;" xml:space="preserve">
<style type="text/css">
	.st0{fill:#5F99D7;}
	.st1{fill:#3C87D0;}
	.st2{fill:#DFF6FD;}
	.st3{fill:#C8EFFE;}
	.st4{fill:#99E6FC;}
	.st5{fill:#62DBFB;}
	.st6{fill:#FFFFFF;}
	.st7{fill:#A4D4A0;}
	.st8{fill:#419B46;}
	.st9{fill:#65BC49;}
	.st10{fill:#1C2D6B;}
	.st11{fill:#EDE49D;}
	.st12{fill:#D3BA2A;}
	.st13{fill:#EEE045;}
</style>
<g>
	<g>
		<g>
			<path class="st0" d="M321.8,452.9c0,28.5-23.1,51.7-51.7,51.7H79.3c-28.5,0-51.7-23.1-51.7-51.7V59.1c0-28.5,23.1-51.7,51.7-51.7
				h190.8c28.5,0,51.7,23.1,51.7,51.7L321.8,452.9z"/>
			<path class="st1" d="M106.9,467.7v-431c0-10.7,2.7-20.7,7.4-29.2h-35c-28.5,0-51.7,23.1-51.7,51.7v393.7
				c0,28.5,23.1,51.7,51.7,51.7h40.1C111.6,494.6,106.9,481.7,106.9,467.7L106.9,467.7z"/>
			<path class="st1" d="M315.3,332.9c1.9,1.9,4.1,3.5,6.4,4.8V118.4h-63.4c-26.1,0-47.4,21.2-47.4,47.4v99.4
				c0,26.1,21.2,47.4,47.4,47.4h36.5L315.3,332.9z"/>
			<path class="st2" d="M291.8,452.9c0,12-9.7,21.7-21.7,21.7H79.3c-12,0-21.7-9.7-21.7-21.7V59.1c0-12,9.7-21.7,21.7-21.7h12.4
				c2.7,0,5.1,1.7,6,4.2l2.9,7.8c3.2,8.6,11.5,14.4,20.7,14.4h106.8c9.2,0,17.5-5.7,20.7-14.4l2.9-7.8c0.9-2.5,3.3-4.2,6-4.2h12.4
				c12,0,21.7,9.7,21.7,21.7V452.9z"/>
			<path class="st3" d="M291.8,118.4h-33.5c-26.1,0-47.4,21.2-47.4,47.4v99.4c0,26.1,21.2,47.4,47.4,47.4h33.5V118.4z"/>
			<path class="st3" d="M107.3,474.6c-0.3-2.3-0.4-4.6-0.4-6.9V58.4c-2.8-2.4-5-5.4-6.3-9l-2.9-7.8c-0.9-2.5-3.3-4.2-6-4.2H79.3
				c-12,0-21.7,9.7-21.7,21.7v393.7c0,12,9.7,21.7,21.7,21.7H107.3z"/>
			<path class="st4" d="M99.6,116.9c-3.2,0-5.7,2.6-5.7,5.7v144.7c0,3.2,2.6,5.7,5.7,5.7H255c3,0,5.5-2.4,5.5-5.5V122.4
				c0-3-2.4-5.5-5.5-5.5L99.6,116.9z"/>
			<path class="st5" d="M211,165.7v99.4c0,2.7,0.2,5.4,0.7,8H255c3,0,5.5-2.4,5.5-5.5V122.4c0-1.6-0.7-3-1.7-4h-0.4
				C232.3,118.4,211,139.6,211,165.7L211,165.7z"/>
			<path class="st4" d="M227.7,415.1h-106c-6.2,0-11.3-5.1-11.3-11.3v-71.5c0-6.2,5.1-11.3,11.3-11.3h106c6.2,0,11.3,5.1,11.3,11.3
				v71.5C239,410,234,415.1,227.7,415.1z"/>
		</g>
	</g>
	<g>
		<path d="M321.8,341.1c-4.1,0-7.5,3.3-7.5,7.5v104.2c0,24.4-19.8,44.2-44.2,44.2H79.3c-24.4,0-44.2-19.8-44.2-44.2V59.1
			C35.1,34.8,54.9,15,79.3,15h190.8c24.4,0,44.2,19.8,44.2,44.2v49.3c0,4.1,3.3,7.5,7.5,7.5c4.1,0,7.5-3.3,7.5-7.5V59.1
			c0-32.6-26.5-59.1-59.1-59.1H79.3C46.7,0,20.2,26.5,20.2,59.1v393.7c0,32.6,26.5,59.1,59.1,59.1h190.8c32.6,0,59.1-26.5,59.1-59.1
			V348.6C329.3,344.5,325.9,341.1,321.8,341.1L321.8,341.1z"/>
		<path d="M291.8,115.9c4.1,0,7.5-3.3,7.5-7.5V59.1c0-16.1-13.1-29.2-29.2-29.2h-12.4c-5.8,0-11,3.6-13,9l-2.9,7.8
			c-2.1,5.7-7.6,9.5-13.7,9.5H121.3c-6.1,0-11.6-3.8-13.7-9.5l-2.9-7.8c-2-5.4-7.3-9-13-9H79.3c-16.1,0-29.2,13.1-29.2,29.2v19.5
			c0,4.1,3.3,7.5,7.5,7.5s7.5-3.3,7.5-7.5V59.1c0-7.9,6.4-14.2,14.2-14.2h11.6l2.7,7.1c4.3,11.5,15.5,19.2,27.7,19.2h106.8
			c12.3,0,23.4-7.7,27.7-19.2l2.7-7.1h11.6c7.9,0,14.2,6.4,14.2,14.2v49.3C284.4,112.5,287.7,115.9,291.8,115.9L291.8,115.9z"/>
		<path d="M57.6,103c-4.1,0-7.5,3.3-7.5,7.5v342.3c0,16.1,13.1,29.2,29.2,29.2h190.8c16.1,0,29.2-13.1,29.2-29.2V323.5
			c0-4.1-3.3-7.5-7.5-7.5s-7.5,3.3-7.5,7.5v129.3c0,7.9-6.4,14.2-14.2,14.2H79.3c-7.9,0-14.2-6.4-14.2-14.2V110.5
			C65,106.4,61.7,103,57.6,103z"/>
		<path d="M457,130.9H258.4c-19.2,0-34.9,15.6-34.9,34.9v99.4c0,19.2,15.6,34.9,34.9,34.9h41.7l24.1,24.1c3,3,6.8,4.4,10.7,4.4
			c3.9,0,7.8-1.5,10.7-4.4l24.1-24.1H457c19.2,0,34.9-15.6,34.9-34.9v-99.4C491.8,146.5,476.2,130.9,457,130.9z M476.9,265.1
			c0,11-8.9,19.9-19.9,19.9h-90.4c-2,0-3.9,0.8-5.3,2.2L335,313.5c-0.1,0.1-0.2,0.1-0.3,0l-26.3-26.3c-1.4-1.4-3.3-2.2-5.3-2.2
			h-44.8c-11,0-19.9-8.9-19.9-19.9v-99.4c0-11,8.9-19.9,19.9-19.9H457c11,0,19.9,8.9,19.9,19.9L476.9,265.1L476.9,265.1z"/>
		<path d="M207.8,109.4H99.6c-7.3,0-13.2,5.9-13.2,13.2v144.7c0,7.3,5.9,13.2,13.2,13.2h95.1c4.1,0,7.5-3.3,7.5-7.5
			s-3.3-7.5-7.5-7.5h-93.4V124.4h106.5c4.1,0,7.5-3.3,7.5-7.5C215.3,112.8,211.9,109.4,207.8,109.4L207.8,109.4z"/>
		<path d="M227.7,313.6h-106c-10.4,0-18.8,8.4-18.8,18.8v71.5c0,10.4,8.4,18.8,18.8,18.8h56.8c4.1,0,7.5-3.3,7.5-7.5
			c0-4.1-3.3-7.5-7.5-7.5h-56.8c-2.1,0-3.8-1.7-3.8-3.8v-71.5c0-2.1,1.7-3.8,3.8-3.8h106c2.1,0,3.8,1.7,3.8,3.8v71.5
			c0,2.1-1.7,3.8-3.8,3.8h-17.3c-4.1,0-7.5,3.3-7.5,7.5c0,4.1,3.3,7.5,7.5,7.5h17.3c10.4,0,18.8-8.4,18.8-18.8v-71.5
			C246.5,322,238.1,313.6,227.7,313.6z"/>
		<path d="M216.4,42.1c4.1,0,7.5-3.3,7.5-7.5s-3.3-7.5-7.5-7.5h-79.1c-4.1,0-7.5,3.3-7.5,7.5s3.3,7.5,7.5,7.5H216.4z"/>
	</g>
</g>
<path class="st6" d="M476.9,265.3c0,11-9,20-20,20h-90.9c-2,0-3.9,0.8-5.3,2.2L334.2,314c-0.1,0.1-0.2,0.1-0.3,0l-26.4-26.4
	c-1.4-1.4-3.3-2.2-5.3-2.2h-45c-11,0-20-9-20-20v-100c0-11,9-20,20-20h199.8c11,0,20,9,20,20L476.9,265.3L476.9,265.3z"/>
<g>
	<path class="st7" d="M269.7,192.7l42.9-13.3l26.5,85.7l-42.9,13.3L269.7,192.7z"/>
	<path class="st8" d="M369.8,161.8l42.9-13.3l26.5,85.7l-42.9,13.3L369.8,161.8z"/>
	<path class="st9" d="M312.6,179.5l57.1-17.7l26.5,85.7l-57.1,17.7L312.6,179.5z"/>
	<path class="st10" d="M294.8,281.3c-0.8-0.4-1.3-1.1-1.6-1.9l-26.5-85.7c-0.5-1.7,0.4-3.5,2.1-4l142.9-44.2c1.7-0.5,3.5,0.4,4,2.1
		l26.5,85.7c0.5,1.7-0.4,3.5-2.1,4l-142.9,44.2C296.4,281.8,295.5,281.7,294.8,281.3L294.8,281.3z M273.8,194.8l24.6,79.6
		l136.8-42.3l-24.6-79.6L273.8,194.8z"/>
	<path class="st11" d="M338.4,242.7l-13.7-44.2c3.6-1.1,5.6-4.9,4.5-8.5l-30.5,9.4c1.7,5.6-1.4,11.6-7.1,13.4l11.4,36.7
		c5.6-1.7,11.6,1.4,13.4,7.1l30.5-9.4C345.8,243.6,342,241.6,338.4,242.7z"/>
	<path class="st12" d="M392.6,170.4l-30.5,9.4c1.1,3.6,4.9,5.6,8.5,4.5l13.7,44.2c-3.6,1.1-5.6,4.9-4.5,8.5l30.5-9.4
		c-1.7-5.6,1.4-11.6,7.1-13.4l-11.4-36.7C400.3,179.2,394.3,176,392.6,170.4L392.6,170.4z"/>
	<path class="st13" d="M384.2,228.5l-13.7-44.2c-3.6,1.1-7.4-0.9-8.5-4.5L329.2,190c1.1,3.6-0.9,7.4-4.5,8.5l13.7,44.2
		c3.6-1.1,7.4,0.9,8.5,4.5l32.8-10.1C378.6,233.4,380.6,229.6,384.2,228.5L384.2,228.5z"/>
	<path class="st10" d="M314.9,259.4c-0.8-0.4-1.3-1.1-1.6-1.9c-0.6-1.9-1.9-3.5-3.7-4.4s-3.8-1.1-5.7-0.5c-1.6,0.5-3.5-0.5-4-2.1
		l-11.4-36.7c-0.5-1.7,0.4-3.5,2.1-4c1.9-0.6,3.5-1.9,4.4-3.7c0.9-1.8,1.1-3.8,0.5-5.7c-0.5-1.7,0.4-3.5,2.1-4l93.9-29
		c1.6-0.5,3.5,0.5,4,2.1c1.2,3.9,5.4,6.2,9.4,4.9c1.7-0.5,3.5,0.4,4,2.1l11.4,36.7c0.3,0.8,0.2,1.7-0.2,2.4
		c-0.4,0.8-1.1,1.3-1.9,1.6c-1.9,0.6-3.5,1.9-4.4,3.7c-0.9,1.8-1.1,3.8-0.5,5.7c0.3,0.8,0.2,1.7-0.2,2.4s-1.1,1.3-1.9,1.6l-93.9,29
		C316.5,259.9,315.6,259.8,314.9,259.4L314.9,259.4z M312.6,247.5c2.2,1.2,4.2,3,5.5,5.2l88.5-27.4c-0.4-5.2,2.3-10.2,6.8-12.9
		l-9.7-31.3c-5.2,0.4-10.2-2.3-12.9-6.8l-88.5,27.4c0.4,5.2-2.3,10.2-6.8,12.9l9.7,31.3C307.8,245.7,310.4,246.3,312.6,247.5
		L312.6,247.5z"/>
	<path class="st10" d="M359.8,230.9c-6.4,2-13.1-0.9-14.8-6.5c-0.5-1.6,0.4-3.3,2-3.8c1.6-0.5,3.3,0.4,3.8,2c0.7,2.3,4,3.5,7.2,2.5
		c3.2-1,5.2-3.8,4.5-6.1s-4-3.5-7.2-2.5c-6.4,2-13.1-0.9-14.8-6.5c-1.7-5.6,2.1-11.8,8.5-13.8c3.8-1.2,7.8-0.7,10.8,1.3
		c1.4,0.9,1.8,2.8,0.9,4.2c-0.9,1.4-2.8,1.8-4.2,0.9c-1.5-1-3.6-1.2-5.7-0.6c-3.2,1-5.2,3.8-4.5,6.1c0.7,2.3,4,3.5,7.2,2.5
		c6.4-2,13.1,0.9,14.8,6.5C370.1,222.7,366.3,228.9,359.8,230.9z"/>
	<path class="st10" d="M360.9,234.2c-1.1,0.3-2.2-0.3-2.5-1.3l-11.6-37.5c-0.3-1.1,0.3-2.2,1.3-2.5c1.1-0.3,2.2,0.3,2.5,1.3
		l11.6,37.5C362.5,232.7,361.9,233.9,360.9,234.2z"/>
</g>
</svg>
