<?xml version="1.0" encoding="utf-8"?>
<!-- Generator: Adobe Illustrator 24.1.0, SVG Export Plug-In . SVG Version: 6.00 Build 0)  -->
<svg version="1.1" id="Layer_1" xmlns="http://www.w3.org/2000/svg" xmlns:xlink="http://www.w3.org/1999/xlink" x="0px" y="0px"
	 viewBox="0 0 512 512" style="enable-background:new 0 0 512 512;" xml:space="preserve">
<style type="text/css">
	.st0{fill:#2D3277;}
	.st1{fill:#009EE3;}
	.st2{fill:#FFFFFF;}
</style>
<path class="st0" d="M418.1,122.4c0-57.9-72-105.2-160.8-105.2c-88.8,0-160.8,47.2-160.8,105.2c0,1.5,0,5.6,0,6.2
	c0,61.5,62.9,111.2,160.8,111.2c98.5,0,160.8-49.8,160.8-111.2C418.1,126.4,418.1,125.1,418.1,122.4z"/>
<path class="st1" d="M411.9,122.3c0,54.6-69.2,98.9-154.6,98.9c-85.4,0-154.6-44.3-154.6-98.9c0-54.6,69.2-98.9,154.6-98.9
	C342.7,23.4,411.9,67.7,411.9,122.3z"/>
<path class="st2" d="M206,91.1c-0.1,0.2-1.6,1.8-0.6,3c2.4,3.1,10,4.9,17.6,3.2c4.5-1,10.4-5.6,16-10.1c6.1-4.8,12.2-9.7,18.3-11.6
	c6.4-2.1,10.6-1.2,13.3-0.3c3,0.9,6.5,2.9,12.1,7.1c10.6,8,53.1,45.1,60.5,51.5c5.9-2.7,32.2-14,68-21.9
	c-3.1-19.1-14.7-36.5-32.3-50.8c-24.5,10.3-54.4,15.7-83.7,1.4c-0.2-0.1-16-7.6-31.6-7.2c-23.2,0.5-33.3,10.6-43.9,21.2L206,91.1z"
	/>
<path class="st2" d="M341.4,137.8c-0.5-0.4-50-43.8-61.2-52.2c-6.5-4.9-10.1-6.1-13.9-6.6c-2-0.3-4.7,0.1-6.6,0.6
	c-5.2,1.4-12,6-18.1,10.8c-6.3,5-12.2,9.7-17.7,10.9c-7,1.6-15.6-0.3-19.5-2.9c-1.6-1.1-2.7-2.3-3.2-3.5c-1.4-3.3,1.2-6,1.7-6.5
	l13.7-14.8c1.6-1.6,3.2-3.2,4.8-4.7c-4.4,0.6-8.5,1.7-12.5,2.8c-4.9,1.4-9.7,2.7-14.5,2.7c-2,0-12.8-1.8-14.8-2.3
	c-12.4-3.4-23.2-6.7-39.4-14.2c-19.4,14.5-32.4,32.5-36.2,52.5c2.8,0.7,7.3,2.1,9.2,2.5c44,9.8,57.6,19.8,60.1,21.9
	c2.7-3,6.6-4.9,10.9-4.9c4.9,0,9.2,2.4,11.9,6.2c2.5-2,6-3.7,10.5-3.7c2,0,4.2,0.4,6.3,1.1c5,1.7,7.5,5,8.8,8
	c1.7-0.8,3.7-1.3,6.1-1.3c2.4,0,4.8,0.5,7.3,1.6c8.1,3.5,9.4,11.4,8.6,17.4c0.6-0.1,1.2-0.1,1.7-0.1c9.6,0,17.4,7.8,17.4,17.4
	c0,3-0.8,5.8-2.1,8.2c2.6,1.5,9.3,4.8,15.1,4.1c4.7-0.6,6.4-2.2,7.1-3.1c0.4-0.6,0.9-1.3,0.5-1.9l-12.4-13.8c0,0-2-1.9-1.4-2.7
	c0.7-0.8,2,0.3,2.9,1.1c6.3,5.3,14,13.2,14,13.2c0.1,0.1,0.6,1.1,3.5,1.6c2.5,0.4,6.8,0.2,9.8-2.3c0.8-0.6,1.5-1.4,2.2-2.2
	c-0.1,0-0.1,0.1-0.1,0.1c3.2-4.1-0.4-8.2-0.4-8.2l-14.5-16.3c0,0-2.1-1.9-1.4-2.7c0.6-0.7,2,0.3,2.9,1.1
	c4.6,3.8,11.1,10.3,17.3,16.4c1.2,0.9,6.7,4.3,13.9-0.5c4.4-2.9,5.3-6.4,5.1-9.1c-0.3-3.5-3.1-6-3.1-6L302,134c0,0-2.1-1.8-1.4-2.7
	c0.6-0.8,2,0.3,2.8,1.1c6.3,5.3,23.4,20.9,23.4,20.9c0.2,0.2,6.1,4.4,13.4-0.3c2.6-1.7,4.3-4.2,4.4-7.1
	C345,140.8,341.4,137.8,341.4,137.8z"/>
<path class="st2" d="M245.5,163.1c-3.1,0-6.4,1.8-6.9,1.5c-0.2-0.2,0.2-1.4,0.5-2.1c0.3-0.7,4.3-12.9-5.5-17.1
	c-7.5-3.2-12.1,0.4-13.7,2c-0.4,0.4-0.6,0.4-0.6-0.2c-0.2-2.2-1.1-8.1-7.6-10.1c-9.3-2.8-15.3,3.6-16.8,6c-0.7-5.3-5.2-9.4-10.6-9.4
	c-6,0-10.8,4.8-10.8,10.8c0,6,4.8,10.8,10.8,10.8c2.9,0,5.5-1.2,7.5-3c0.1,0.1,0.1,0.2,0.1,0.4c-0.5,2.7-1.3,12.4,8.9,16.3
	c4.1,1.6,7.5,0.4,10.4-1.6c0.9-0.6,1-0.3,0.9,0.5c-0.4,2.5,0.1,7.8,7.6,10.9c5.7,2.3,9.1-0.1,11.3-2.1c1-0.9,1.2-0.7,1.3,0.6
	c0.3,7.2,6.3,12.9,13.5,12.9c7.5,0,13.6-6.1,13.6-13.6C259,169.1,253,163.1,245.5,163.1z"/>
<path class="st0" d="M343.3,132.7c-15.3-13.3-50.5-44-60-51.1c-5.5-4.1-9.2-6.3-12.4-7.2c-1.5-0.4-3.5-0.9-6.1-1
	c-2.4,0-5,0.4-7.8,1.3c-6.2,2-12.3,6.8-18.3,11.6l-0.3,0.2c-5.5,4.4-11.3,9-15.6,9.9c-1.9,0.4-3.8,0.6-5.8,0.6
	c-4.9,0-9.2-1.4-10.8-3.5c-0.3-0.3-0.1-0.9,0.5-1.7l0.1-0.1l13.4-14.5c10.5-10.5,20.4-20.4,43.3-21c0.4,0,0.8,0,1.1,0
	c14.2,0,28.4,6.4,30,7.1c13.3,6.5,27.1,9.8,40.9,9.8c14.4,0,29.3-3.6,44.9-10.8c-1.7-1.5-3.6-2.9-5.4-4.3c-13.7,6-26.8,9-39.5,9
	c-12.9,0-25.8-3.1-38.3-9.2c-0.7-0.3-16.4-7.7-32.7-7.7c-0.4,0-0.9,0-1.3,0c-19.2,0.5-30,7.3-37.3,13.2c-7.1,0.2-13.2,1.9-18.6,3.4
	c-4.8,1.3-9,2.5-13.1,2.5c-1.7,0-4.7-0.2-5-0.2c-4.7-0.1-28.3-5.9-47.1-13.1c-1.9,1.4-3.8,2.8-5.6,4.2c19.6,8.1,43.5,14.3,51.1,14.8
	c2.1,0.1,4.3,0.4,6.6,0.4c5,0,10-1.4,14.8-2.7c2.8-0.8,6-1.7,9.3-2.3c-0.9,0.9-1.8,1.7-2.6,2.6l-13.6,14.7c-1.1,1.1-3.4,4-1.9,7.5
	c0.6,1.4,1.8,2.8,3.6,4c3.2,2.2,9.1,3.7,14.5,3.7c2,0,4-0.2,5.8-0.6c5.7-1.3,11.7-6.1,18.1-11.1c5.1-4,12.2-9.1,17.8-10.6
	c1.5-0.4,3.4-0.7,4.9-0.7c0.5,0,0.9,0,1.3,0.1c3.6,0.5,7.2,1.7,13.4,6.4c11.2,8.4,60.7,51.7,61.2,52.1c0,0,3.2,2.8,3,7.3
	c-0.1,2.5-1.5,4.8-4,6.3c-2.1,1.3-4.3,2-6.5,2c-3.3,0-5.6-1.6-5.7-1.7c-0.2-0.1-17.1-15.7-23.4-20.9c-1-0.8-2-1.6-2.9-1.6
	c-0.5,0-1,0.2-1.3,0.6c-1,1.2,0.1,2.9,1.4,4l19.8,19.9c0,0,2.5,2.3,2.7,5.4c0.2,3.3-1.4,6.1-4.7,8.2c-2.3,1.5-4.7,2.3-7,2.3
	c-3,0-5.2-1.4-5.7-1.7l-2.8-2.8c-5.2-5.1-10.6-10.4-14.5-13.7c-1-0.8-2-1.5-3-1.5c-0.5,0-0.9,0.2-1.2,0.5c-0.4,0.5-0.8,1.4,0.4,2.9
	c0.5,0.6,1,1.1,1,1.1l14.5,16.2c0.1,0.1,3,3.5,0.3,6.9l-0.5,0.6c-0.4,0.5-0.9,0.9-1.3,1.3c-2.5,2-5.8,2.2-7.1,2.2
	c-0.7,0-1.4-0.1-2-0.2c-1.4-0.3-2.4-0.7-2.8-1.2l-0.2-0.2c-0.8-0.8-8.1-8.3-14.1-13.3c-0.8-0.7-1.8-1.5-2.8-1.5
	c-0.5,0-1,0.2-1.3,0.6c-1.2,1.3,0.6,3.3,1.4,4l12.3,13.6c0,0.1-0.2,0.4-0.5,0.8c-0.4,0.6-1.9,2.1-6.4,2.7c-0.5,0.1-1.1,0.1-1.6,0.1
	c-4.6,0-9.5-2.2-12.1-3.6c1.2-2.4,1.8-5.1,1.8-7.8c0-10.2-8.2-18.4-18.4-18.4c-0.2,0-0.4,0-0.7,0c0.3-4.6-0.3-13.4-9.3-17.3
	c-2.6-1.1-5.2-1.7-7.7-1.7c-2,0-3.9,0.3-5.6,1c-1.9-3.6-5-6.3-9-7.6c-2.2-0.8-4.5-1.2-6.6-1.2c-3.7,0-7.2,1.1-10.3,3.3
	c-3-3.7-7.4-5.8-12.1-5.8c-4.1,0-8.1,1.6-11,4.5c-3.8-2.9-19.1-12.6-59.8-21.9c-2-0.5-6.5-1.7-9.3-2.6c-0.5,2.2-0.8,4.4-1,6.7
	c0,0,7.5,1.8,9,2.1c41.6,9.2,55.4,18.9,57.7,20.7c-0.8,1.9-1.2,3.9-1.2,6c0,8.6,7,15.6,15.6,15.6c1,0,1.9-0.1,2.9-0.3
	c1.3,6.3,5.4,11.1,11.8,13.6c1.8,0.7,3.7,1.1,5.6,1.1c1.2,0,2.4-0.1,3.6-0.4c1.2,3,3.8,6.7,9.7,9.1c2.1,0.8,4.1,1.3,6.1,1.3
	c1.6,0,3.2-0.3,4.8-0.8c2.8,6.9,9.5,11.4,17,11.4c5,0,9.7-2,13.2-5.6c3,1.6,9.2,4.6,15.6,4.6c0.8,0,1.6-0.1,2.4-0.1
	c6.3-0.8,9.2-3.3,10.6-5.2c0.2-0.3,0.5-0.7,0.7-1.1c1.5,0.4,3.1,0.8,5,0.8c3.4,0,6.7-1.2,10.1-3.6c3.3-2.4,5.6-5.8,5.9-8.6
	c0,0,0-0.1,0-0.1c1.1,0.2,2.2,0.3,3.4,0.3c3.5,0,7-1.1,10.3-3.3c6.4-4.2,7.5-9.7,7.4-13.3c1.1,0.2,2.3,0.4,3.4,0.4
	c3.3,0,6.6-1,9.7-3c4-2.5,6.4-6.4,6.7-11c0.2-3.1-0.5-6.2-2.1-8.9c10.7-4.6,35.3-13.6,64.2-20.1c-0.2-2.2-0.5-4.5-0.9-6.7
	C376,118.4,349.9,129.7,343.3,132.7z M245.5,189.2c-6.8,0-12.3-5.3-12.6-12c0-0.6-0.1-2.1-1.4-2.1c-0.5,0-1,0.3-1.5,0.8
	c-1.5,1.4-3.4,2.8-6.2,2.8c-1.3,0-2.6-0.3-4.1-0.9c-7.2-2.9-7.3-7.8-7-9.8c0.1-0.5,0.1-1.1-0.3-1.5l-0.4-0.4h-0.4
	c-0.4,0-0.7,0.1-1.2,0.5c-2.1,1.5-4.1,2.2-6.1,2.2c-1.1,0-2.3-0.2-3.4-0.7c-9.5-3.7-8.7-12.6-8.2-15.3c0.1-0.5-0.1-1-0.4-1.2
	l-0.7-0.6l-0.6,0.6c-1.8,1.8-4.2,2.7-6.8,2.7c-5.4,0-9.8-4.4-9.8-9.8c0-5.4,4.4-9.8,9.8-9.8c4.9,0,9.1,3.7,9.7,8.6l0.3,2.6l1.4-2.2
	c0.2-0.3,4.1-6.3,11.4-6.2c1.4,0,2.8,0.2,4.3,0.7c5.8,1.8,6.8,7,6.9,9.2c0.1,1.3,1,1.3,1.2,1.3c0.5,0,0.9-0.3,1.1-0.6
	c1.1-1.1,3.5-3.1,7.2-3.1c1.7,0,3.5,0.4,5.4,1.2c9.2,4,5,15.7,5,15.8c-0.8,1.9-0.8,2.8-0.1,3.3l0.4,0.2h0.3c0.4,0,0.9-0.2,1.8-0.5
	c1.3-0.4,3.2-1.1,4.9-1.1h0c7,0.1,12.6,5.7,12.6,12.6C258.1,183.6,252.4,189.2,245.5,189.2z"/>
<path class="st0" d="M501.7,302.6c-5.8-7.3-14.6-10.9-26.4-10.9c-11.8,0-20.6,3.6-26.4,10.9c-5.8,7.3-8.7,15.9-8.7,25.8
	c0,10.1,2.9,18.7,8.7,25.9c5.8,7.2,14.6,10.7,26.4,10.7c11.8,0,20.6-3.6,26.4-10.7c5.8-7.2,8.7-15.8,8.7-25.9
	C510.4,318.4,507.5,309.8,501.7,302.6z M487.3,344.3c-2.8,3.7-6.8,5.6-12.1,5.6c-5.3,0-9.3-1.9-12.1-5.6c-2.8-3.7-4.3-9.1-4.3-15.9
	c0-6.9,1.4-12.2,4.3-15.9c2.8-3.7,6.9-5.6,12.1-5.6c5.3,0,9.3,1.9,12.1,5.6c2.8,3.7,4.2,9,4.2,15.9
	C491.6,335.2,490.1,340.5,487.3,344.3z"/>
<path class="st0" d="M353.4,296.5c-5.9-3-12.6-4.5-20.2-4.5c-11.7,0-19.9,3-24.7,9.1c-3,3.9-4.7,8.8-5.1,14.9h17.4
	c0.4-2.7,1.3-4.8,2.6-6.3c1.8-2.1,4.8-3.2,9.2-3.2c3.9,0,6.8,0.5,8.8,1.6c2,1.1,3,3,3,5.8c0,2.3-1.3,4-3.9,5.1
	c-1.4,0.6-3.8,1.2-7.2,1.6l-6.2,0.8c-7,0.9-12.3,2.4-15.9,4.4c-6.6,3.8-9.9,9.9-9.9,18.4c0,6.5,2,11.6,6.1,15.2
	c4.1,3.6,9.3,5.1,15.6,5.4c39.4,1.8,38.9-20.7,39.3-25.4v-25.9C362.2,305.1,359.3,299.5,353.4,296.5z M344.3,335.8
	c-0.1,6-1.9,10.2-5.2,12.5c-3.3,2.3-6.9,3.4-10.9,3.4c-2.5,0-4.6-0.7-6.3-2.1c-1.7-1.4-2.6-3.6-2.6-6.7c0-3.5,1.4-6,4.3-7.7
	c1.7-1,4.4-1.8,8.3-2.5l4.1-0.8c2-0.4,3.7-0.8,4.8-1.2c1.2-0.4,2.3-1,3.5-1.7V335.8z"/>
<path class="st0" d="M263.6,307.4c4.5,0,7.8,1.4,9.9,4.2c1.5,2.1,2.4,4.4,2.7,6.9h19.4c-1.1-9.8-4.5-16.6-10.3-20.5
	c-5.8-3.9-13.2-5.8-22.3-5.8c-10.7,0-19.1,3.3-25.2,9.8c-6.1,6.6-9.1,15.7-9.1,27.5c0,10.4,2.8,19,8.3,25.5
	c5.5,6.6,14.1,9.8,25.8,9.8c11.7,0,20.5-3.9,26.4-11.8c3.7-4.9,5.8-10,6.3-15.5h-19.4c-0.4,3.6-1.5,6.6-3.4,8.8
	c-1.9,2.3-5,3.4-9.5,3.4c-6.3,0-10.5-2.9-12.8-8.6c-1.2-3.1-1.9-7.1-1.9-12.1c0-5.3,0.6-9.5,1.9-12.7
	C252.9,310.4,257.2,307.4,263.6,307.4z"/>
<path class="st0" d="M223.6,292.2c-39.9,0-37.5,35.3-37.5,35.3v35.9h18.1v-33.6c0-5.5,0.7-9.6,2.1-12.3c2.5-4.7,7.3-7.1,14.6-7.1
	c0.5,0,1.3,0,2.1,0.1c0.9,0,1.9,0.1,3,0.3v-18.4c-0.8-0.1-1.3-0.1-1.5-0.1C224.2,292.2,224,292.2,223.6,292.2z"/>
<path class="st0" d="M157.1,344.7c-0.8,1.1-1.6,2-2.5,2.7c-2.6,2.1-6,2.7-10.1,2.7c-3.9,0-6.9-0.6-9.6-2.3
	c-4.5-2.8-7.1-7.5-7.3-14.4h50.1c0.1-5.9-0.1-10.5-0.6-13.6c-0.8-5.4-2.7-10.1-5.5-14.2c-3.1-4.6-7.1-8-11.9-10.2
	c-4.8-2.1-10.2-3.2-16.2-3.2c-10.1,0-18.3,3.2-24.6,9.5c-6.3,6.4-9.5,15.5-9.5,27.4c0,12.7,3.5,21.9,10.5,27.5
	c7,5.6,15.1,8.5,24.2,8.5c11.1,0,19.7-3.3,25.9-10c3.3-3.5,5.4-7,6.3-10.4H157.1z M132.8,311c2.5-2.6,6.1-3.9,10.7-3.9
	c4.2,0,7.8,1.2,10.7,3.7c2.9,2.5,4.5,6.1,4.8,10.9h-31C128.7,317.1,130.3,313.6,132.8,311z"/>
<path class="st0" d="M102.2,363.4H85.7v-41.6c0-3.8-1.3-12.9-12.2-12.9c-7.3,0-12.5,5.2-12.5,12.9v41.6H44.4v-41.6
	c0-3.8-1.1-12.9-12-12.9c-7.4,0-12.5,5.2-12.5,12.9v41.6H3.3v-41.2C3.3,305,14.7,292,32.4,292c8.8,0,15.9,3.7,20.6,9.6
	c4.9-5.9,12.1-9.6,20.6-9.6c18,0,28.7,12.5,28.7,30.2V363.4z"/>
<path class="st0" d="M434.8,270.5c0,0-18.2-1.9-18.2,12.7l0,19.4c-2-3.2-4.6-5.8-7.9-7.6c-3.2-1.8-6.9-2.7-11.1-2.7
	c-9,0-16.3,3.4-21.7,10.1c-5.4,6.7-8.1,16.4-8.1,28.2c0,10.2,2.7,18.5,8.2,25c5.5,6.5,16.3,9.3,25.8,9.3c33.3,0,32.9-28.6,32.9-28.6
	L434.8,270.5z M413.1,344.4c-2.6,3.8-6.5,5.7-11.6,5.7c-5.1,0-8.9-1.9-11.4-5.7c-2.5-3.8-3.7-9.4-3.7-15.7c0-5.9,1.2-10.8,3.7-14.8
	c2.5-4,6.3-6,11.6-6c3.5,0,6.5,1.1,9.1,3.3c4.2,3.6,6.4,10.1,6.4,18.5C417,335.7,415.7,340.6,413.1,344.4z"/>
<path class="st1" d="M135,472.8c0,2.5-0.9,4.6-2.7,6.3c-1.8,1.8-3.9,2.6-6.4,2.6h-9.1v-63c0-12.3,4.1-19.9,10.9-25.1
	c4.5-3.4,11.2-6.7,23.7-6.7c8.5,0,18.4,3.3,23.7,9.8c6,7.3,8.5,15.5,8.5,26.2c0,11.1-2.7,20-8,26.8c-5.3,6.7-12.2,10-20.5,10
	c-4.4,0-8.3-0.8-11.7-2.4c-3.6-1.8-6.4-4.5-8.5-8.2V472.8z M165.4,423.8c0-6.8-1.3-12.1-4-15.8c-2.7-3.7-6.5-5.5-11.5-5.5
	c-4.8,0-8.5,1.9-11.2,5.5c-2.5,3.3-3.7,8.6-3.7,15.8c0,6.7,1.3,11.7,4,15c2.7,3.7,6.5,5.5,11.5,5.5c4.6,0,8.3-1.8,10.9-5.5
	C164.1,435.1,165.4,430.1,165.4,423.8"/>
<path class="st1" d="M303.9,454v-4.5c-3.1,4.9-7.4,8-12.7,9.2c-5.3,1.2-10.6,0.8-15.8-1.3c-5.2-2.1-9.7-6-13.5-11.7
	c-3.7-5.7-5.6-13.2-5.6-22.5c0-10.8,2.5-19.7,7.5-26.4c5-6.7,13-9.8,24-10.1c10.8-0.3,17.1,2.2,23.3,6.8c6.7,5.1,10.7,13,10.7,25.2
	v37.1c0,11.8-8.2,33.7-34,31.8c-16-1.2-24.9-7.7-29.8-22.6H277c1.4,2.4,3.5,4.3,6.4,5.6c2.9,1.3,5.8,1.7,8.6,1.1
	c2.9-0.6,5.5-2.3,7.9-5.1C302.2,463.8,303.6,459.6,303.9,454 M274.1,423.8c0,12.1,3.5,18.8,10.5,20.1c7,1.3,12.1-0.3,15.4-4.9
	c1.6-1.9,2.7-4.9,3.4-9.1c0.7-4.1,0.7-8.2,0.1-12.2c-0.6-4-2-7.6-4.3-10.8c-2.3-3.1-5.6-4.7-9.9-4.7c-5.9,0-9.9,2.2-12,6.6
	C275.1,413.2,274.1,418.2,274.1,423.8"/>
<path class="st1" d="M240.8,391.7c-5.9-3-12.6-4.5-20.2-4.5c-11.7,0-19.9,3.1-24.7,9.1c-3,3.9-4.7,8.9-5.1,14.9h17.4
	c0.4-2.7,1.3-4.8,2.6-6.3c1.8-2.1,4.9-3.2,9.2-3.2c3.9,0,6.8,0.5,8.8,1.6c2,1.1,3,3,3,5.9c0,2.3-1.3,4-3.9,5.1
	c-1.4,0.6-3.8,1.2-7.2,1.6l-6.2,0.8c-7,0.9-12.4,2.4-16,4.4c-6.6,3.8-9.9,10-9.9,18.4c0,6.5,2,11.6,6.2,15.2
	c4.1,3.6,9.3,5.1,15.6,5.4c39.4,1.8,39-20.8,39.3-25.5v-25.9C249.6,400.4,246.7,394.7,240.8,391.7 M231.6,431.1
	c-0.1,6-1.8,10.2-5.2,12.5c-3.3,2.3-7,3.4-10.9,3.4c-2.5,0-4.6-0.7-6.3-2.1c-1.7-1.4-2.6-3.6-2.6-6.7c0-3.5,1.4-6,4.3-7.7
	c1.7-1,4.5-1.8,8.3-2.5l4.1-0.8c2.1-0.4,3.7-0.8,4.8-1.3c1.2-0.4,2.3-1,3.5-1.7V431.1z"/>
<path class="st1" d="M390.3,397.4c-5.8-7.3-14.6-10.9-26.5-10.9c-11.8,0-20.6,3.6-26.5,10.9c-5.8,7.3-8.7,15.9-8.7,25.8
	c0,10.1,2.9,18.7,8.7,25.9c5.8,7.2,14.6,10.8,26.5,10.8c11.8,0,20.7-3.6,26.5-10.8c5.8-7.2,8.7-15.8,8.7-25.9
	C399,413.3,396.1,404.7,390.3,397.4 M375.9,439.2c-2.8,3.7-6.9,5.6-12.1,5.6c-5.3,0-9.3-1.9-12.2-5.6c-2.8-3.7-4.3-9.1-4.3-16
	c0-6.9,1.4-12.2,4.3-15.9c2.8-3.7,6.9-5.6,12.2-5.6c5.3,0,9.3,1.9,12.1,5.6c2.8,3.7,4.2,9,4.2,15.9
	C380.1,430.1,378.7,435.5,375.9,439.2"/>
</svg>
