<?xml version="1.0" encoding="utf-8"?>
<!-- Generator: Adobe Illustrator 24.1.0, SVG Export Plug-In . SVG Version: 6.00 Build 0)  -->
<svg version="1.1" id="Layer_1" xmlns="http://www.w3.org/2000/svg" xmlns:xlink="http://www.w3.org/1999/xlink" x="0px" y="0px"
	 viewBox="0 0 512 512" style="enable-background:new 0 0 512 512;" xml:space="preserve">
<style type="text/css">
	.st0{fill:#58595B;}
	.st1{fill:#4F5052;}
	.st2{fill:#FFA791;}
	.st3{fill:#57A4FF;}
	.st4{fill:#FF9478;}
	.st5{fill:#2488FF;}
	.st6{fill:#009444;}
	.st7{fill:#00853D;}
	.st8{fill:#ED1C24;}
	.st9{fill:#006DF0;}
	.st10{fill:#CD2A00;}
	.st11{fill:#004FAC;}
	.st12{fill:#00479B;}
	.st13{fill:#231F20;}
</style>
<g id="people-coronavirus-covid19-tempurature-scan">
	<path class="st0" d="M416,424l29.3-19.5c26.7-17.8,42.7-47.8,42.7-79.8V200c0-61.9-50.1-112-112-112H200v16c0,35.3,28.7,64,64,64
		h88c26.5,0,48,21.5,48,48v48h16V424z"/>
	<path class="st1" d="M376,88h-16c61.9,0,112,50.1,112,112v124.6c0,32.1-16,62.1-42.7,79.8l-13.3,8.9V424l29.3-19.5
		c26.7-17.8,42.7-47.8,42.7-79.8V200C488,138.1,437.9,88,376,88L376,88z"/>
	<path class="st2" d="M440,264h-40v-48c0-26.5-21.5-48-48-48h-88c-17.7,0-32,14.3-32,32v32l-28.4,56H184l16,144h48
		c8.1,0,16.2-1.2,24-3.7V488h144V344h8c17.7,0,32-14.3,32-32v-32C456,271.2,448.8,264,440,264z"/>
	<path class="st3" d="M200,432h48c44.2,0,80-35.8,80-80c0-35.3-28.7-64-64-64h-80L200,432z"/>
	<path class="st4" d="M384,216v48h16v-48c0-26.5-21.5-48-48-48h-16C362.5,168,384,189.5,384,216z"/>
	<path class="st4" d="M440,264h-16c8.8,0,16,7.2,16,16v32c0,17.7-14.3,32-32,32h-8v144h16V344h8c17.7,0,32-14.3,32-32v-32
		C456,271.2,448.8,264,440,264z"/>
	<path class="st5" d="M280.6,290.3c4.8,9.2,7.4,19.4,7.4,29.7c0,44.2-35.8,80-80,80h-11.6l3.6,32h48c44.2,0,80-35.8,80-80
		C328,323.1,308.6,297.8,280.6,290.3z"/>
	<circle class="st6" cx="424" cy="88" r="64"/>
	<path class="st7" d="M424,24c-4,0-8,0.4-12,1.2c34.7,6.7,57.4,40.3,50.7,75c-5,25.7-25,45.8-50.7,50.7c34.7,6.7,68.3-16,75-50.7
		s-16-68.3-50.7-75C432.2,24.4,428.1,24,424,24z"/>
	<path class="st8" d="M136,136c0,17.7-14.3,32-32,32c-2.6,0-5.3-0.3-7.9-1c-11.4-2.8-20.3-11.6-23.2-23c-3.6-13.9,2.5-28.6,15-35.8
		V40c0-8.8,7.2-16,16-16s16,7.2,16,16v68.3C129.9,114,136,124.6,136,136L136,136z"/>
	<path class="st9" d="M56,376h32v-32l16-96h24h16v-48H56L32,344L56,376z"/>
	<path class="st10" d="M97.3,288H128v-40h-24L97.3,288z"/>
	<path class="st11" d="M32,200l-8,56h22.7l9.3-56H32z"/>
	<path class="st12" d="M144,200h32v48h-32V200z"/>
	<g>
		<path class="st13" d="M316.3,239l1.4-1.4c3.1-3.2,3-8.2-0.2-11.3c-3.1-3-8-3-11.1,0l-1.4,1.4c-9.4,9.4-24.6,9.4-33.9,0
			c0,0,0,0,0,0l-1.4-1.4c-3.2-3.1-8.2-3-11.3,0.2c-3,3.1-3,8,0,11.1l1.4,1.4C275.3,254.6,300.7,254.7,316.3,239
			C316.3,239,316.3,239,316.3,239L316.3,239z"/>
		<path class="st13" d="M176,192H32c-4,0-7.4,2.9-7.9,6.9l-8,56c-0.3,2.3,0.3,4.6,1.8,6.4c1.6,1.7,3.8,2.7,6.1,2.7h13.2l-13.1,78.7
			c-0.3,2.1,0.2,4.3,1.5,6.1l24,32c1.5,2,3.9,3.2,6.4,3.2h32c4.4,0,8-3.6,8-8v-31.4l8.1-48.6H128c4.4,0,8-3.6,8-8v-32h40
			c4.4,0,8-3.6,8-8v-48C184,195.6,180.4,192,176,192z M33.2,248l5.8-40h7.6l-6.6,40H33.2z M120,280h-13.2l4-24h9.2V280z M136,240
			h-32c-3.9,0-7.3,2.8-7.9,6.7l-16,96c-0.1,0.4-0.1,0.9-0.1,1.3v24H60l-19.5-26.1L62.8,208H136V240z M168,240h-16v-32h16V240z"/>
		<path class="st13" d="M496,88c-0.2-39.8-32.5-71.9-72.3-71.7c-36.4,0.1-67,27.5-71.2,63.7H200c-4.4,0-8,3.6-8,8v16
			c0,29.3,17.8,55.7,45,66.7c-8.2,7.5-12.9,18.1-13,29.3v30.1L198.7,280H184c-2.3,0-4.5,1-6,2.6c-1.5,1.7-2.2,4-1.9,6.2l16,144
			c0.4,4.1,3.8,7.1,7.9,7.1h48c5.4,0,10.7-0.5,16-1.5V488c0,4.4,3.6,8,8,8h144c4.4,0,8-3.6,8-8v-59.7l25.7-17.2
			c29-19.2,46.4-51.7,46.3-86.5V200c0-22.6-6.4-44.8-18.6-63.9C489.4,122.9,496,105.8,496,88L496,88z M424,32c30.9,0,56,25.1,56,56
			s-25.1,56-56,56s-56-25.1-56-56C368,57.1,393.1,32,424,32z M239.1,235.6c0.6-1.1,0.9-2.3,0.9-3.6v-32c0-13.2,10.8-24,24-24h88
			c22.1,0,40,17.9,40,40v41.4l-121.4,22.8v0.2c-2.2-0.2-4.3-0.3-6.6-0.3h-47.4L239.1,235.6z M248,424h-40.8L193,296h71
			c30.9,0,56,25.1,56,56C319.9,391.7,287.7,423.9,248,424z M408,480H280v-46.1c7.1-2.9,13.9-6.6,20.1-11.1v0.1L408,358.2V480z
			 M416,336c-1.4,0.2-2.8,0.5-4.1,1.1L328.6,387c4.9-11,7.4-23,7.4-35c0-25.1-13.1-48.4-34.6-61.4l99.3-18.6H440c4.4,0,8,3.6,8,8v32
			c0,13.2-10.8,24-24,24L416,336z M480,200v124.6c0,29.4-14.6,56.9-39.1,73.2L424,409v-57c22.1,0,40-17.9,40-40v-32
			c0-13.2-10.8-24-24-24h-32v-40c0-30.9-25.1-56-56-56h-88c-30.9,0-56-25.1-56-56v-8h144.5c4.1,36.4,34.9,63.9,71.5,64
			c14.8,0,29.3-4.6,41.4-13.2C475,162.9,480,181.3,480,200L480,200z"/>
		<path class="st13" d="M94.3,174.8c3.2,0.8,6.4,1.2,9.7,1.2c22.1,0,40-17.9,40-40c0-12.6-5.9-24.4-16-32V40c0-13.3-10.7-24-24-24
			S80,26.7,80,40v64c-12.9,9.7-18.8,26.3-14.8,41.9C68.8,160.2,80,171.4,94.3,174.8L94.3,174.8z M92,115.3c2.5-1.4,4-4.1,4-6.9V40
			c0-4.4,3.6-8,8-8s8,3.6,8,8h-8v16h8v8h-8v16h8v8h-8v16h8v4.3c0,2.9,1.5,5.5,4,6.9c11.5,6.6,15.4,21.3,8.8,32.8
			c-6.6,11.5-21.3,15.4-32.8,8.8c-11.5-6.6-15.4-21.3-8.8-32.8C85.3,120.4,88.4,117.4,92,115.3z"/>
		<circle class="st13" cx="104" cy="136" r="16"/>
		<path class="st13" d="M409.4,118.6c3.1,3.1,8.2,3.1,11.3,0l45.3-45.3c3.2-3.1,3.3-8.1,0.2-11.3c-3.1-3.2-8.1-3.3-11.3-0.2
			c-0.1,0.1-0.1,0.1-0.2,0.2L415,101.7l-17-17c-3.1-3.2-8.1-3.3-11.3-0.2c-3.2,3.1-3.3,8.1-0.2,11.3c0.1,0.1,0.1,0.1,0.2,0.2
			L409.4,118.6z"/>
	</g>
</g>
</svg>
